# xmcd
#
# Track frame offsets: 
#        150
#        24196
#        47929
#        68693
#        92927
#        114088
#        136854
#        157719
#        177742
#        198102
#        219909
#        243367
#        262995
#
# Disc length: 3783 seconds
#
# Revision: 0
# Processed by: cddbd v1.5.2PL0 Copyright (c) Steve Scherf et al.
# Submitted via: ExactAudioCopyFreeDBPlugin 1.0
#
DISCID=a20ec50d
DTITLE=雷婷  - DTSES声色扰人
DYEAR=2010
DGENRE=DTSES
TTITLE0=难忍的悲
TTITLE1=给我一次疼你的机会 
TTITLE2=爱情苦酒  
TTITLE3=你不是我的月亮我不是你的云
TTITLE4=伤了我也伤了你自己
TTITLE5=我用一生来等你 
TTITLE6=从此我该怎么过
TTITLE7=放手去爱
TTITLE8=一厢情愿 
TTITLE9=你的爱给了谁
TTITLE10=分手在那个秋天
TTITLE11=单身情歌
TTITLE12=一场游戏一场梦
EXTD=
EXTT0=
EXTT1=
EXTT2=
EXTT3=
EXTT4=
EXTT5=
EXTT6=
EXTT7=
EXTT8=
EXTT9=
EXTT10=
EXTT11=
EXTT12=
PLAYORDER=
